<?xml version="1.0" encoding="iso-8859-1"?>
<!-- Generator: Adobe Illustrator 18.1.1, SVG Export Plug-In . SVG Version: 6.00 Build 0)  -->
<svg version="1.1" id="Capa_1" xmlns="http://www.w3.org/2000/svg" xmlns:xlink="http://www.w3.org/1999/xlink" x="0px" y="0px"
	 viewBox="0 0 277.58 277.58" style="enable-background:new 0 0 277.58 277.58;" xml:space="preserve" fill="orange">
<g>
	<path d="M138.46,164.287c-38.628,0-69.925-37.519-69.925-83.767C68.535,34.277,99.832,0,138.46,0
		c38.634,0,69.957,34.277,69.957,80.52C208.417,126.768,177.093,164.287,138.46,164.287z M29.689,277.528
		c0,0-14.832,0.979-21.365-8.023c-3.53-4.863-1.071-14.718,1.343-20.217l5.912-13.473c0,0,16.35-36.567,34.962-57.757
		c11.433-12.994,25.031-10.035,33.826-5.809c5.417,2.6,11.542,10.176,16.018,14.191c6.168,5.532,17.057,11.819,34.859,12.173h10.922
		c17.791-0.354,28.68-6.641,34.843-12.173c4.471-4.014,10.427-11.825,15.795-14.511c8.072-4.041,20.358-6.527,31.492,6.13
		c18.618,21.191,33.363,58.421,33.363,58.421l6.059,13.212c2.507,5.461,5.075,15.267,1.643,20.195
		c-6.124,8.811-19.874,7.642-19.874,7.642S29.689,277.528,29.689,277.528z"/>
</g>
</svg>
